<svg width="15" height="16" viewBox="0 0 15 16" fill="none" xmlns="http://www.w3.org/2000/svg">
<g id="copyright-line 1">
<path id="Vector" d="M10.1798 6.39233C9.63313 5.48344 8.63719 4.875 7.5 4.875C5.77499 4.875 4.375 6.27499 4.375 8C4.375 9.725 5.77499 11.125 7.5 11.125C8.63719 11.125 9.63313 10.5166 10.1798 9.60769L9.10806 8.96513C8.78019 9.51038 8.18294 9.875 7.5 9.875C6.46406 9.875 5.625 9.03594 5.625 8C5.625 6.96406 6.46406 6.125 7.5 6.125C8.18313 6.125 8.78069 6.48991 9.10844 7.0355L10.1798 6.39233ZM13.75 8C13.75 4.54999 10.95 1.75 7.5 1.75C4.04999 1.75 1.25 4.54999 1.25 8C1.25 11.45 4.04999 14.25 7.5 14.25C10.95 14.25 13.75 11.45 13.75 8ZM2.5 8C2.5 5.23747 4.73747 3 7.5 3C10.2625 3 12.5 5.23747 12.5 8C12.5 10.7625 10.2625 13 7.5 13C4.73747 13 2.5 10.7625 2.5 8Z" fill="#84848A"/>
</g>
</svg>
